<svg width="367" height="217" viewBox="0 0 377 217" fill="none" xmlns="http://www.w3.org/2000/svg">
<g clip-path="url(#clip0_142_1220)">
<rect width="377" height="217" rx="10" fill="#2A2A2A" fill-opacity="0.95"/>
<circle cx="348" cy="76" r="79" fill="#FAFAFA" fill-opacity="0.25"/>
<circle cx="248" cy="25" r="79" fill="#FAFAFA" fill-opacity="0.25"/>
<path d="M331.62 22.832L327.524 34H324.804L320.708 22.832H323.108L326.18 31.712L329.236 22.832H331.62ZM335.203 22.832V34H332.963V22.832H335.203ZM341.273 34.112C340.494 34.112 339.79 33.9787 339.161 33.712C338.542 33.4453 338.051 33.0613 337.689 32.56C337.326 32.0587 337.139 31.4667 337.129 30.784H339.529C339.561 31.2427 339.721 31.6053 340.009 31.872C340.307 32.1387 340.713 32.272 341.225 32.272C341.747 32.272 342.158 32.1493 342.457 31.904C342.755 31.648 342.905 31.3173 342.905 30.912C342.905 30.5813 342.803 30.3093 342.601 30.096C342.398 29.8827 342.142 29.7173 341.833 29.6C341.534 29.472 341.118 29.3333 340.585 29.184C339.859 28.9707 339.267 28.7627 338.809 28.56C338.361 28.3467 337.971 28.032 337.641 27.616C337.321 27.1893 337.161 26.624 337.161 25.92C337.161 25.2587 337.326 24.6827 337.657 24.192C337.987 23.7013 338.451 23.328 339.049 23.072C339.646 22.8053 340.329 22.672 341.097 22.672C342.249 22.672 343.182 22.9547 343.897 23.52C344.622 24.0747 345.022 24.8533 345.097 25.856H342.633C342.611 25.472 342.446 25.1573 342.137 24.912C341.838 24.656 341.438 24.528 340.937 24.528C340.499 24.528 340.147 24.64 339.881 24.864C339.625 25.088 339.497 25.4133 339.497 25.84C339.497 26.1387 339.593 26.3893 339.785 26.592C339.987 26.784 340.233 26.944 340.521 27.072C340.819 27.1893 341.235 27.328 341.769 27.488C342.494 27.7013 343.086 27.9147 343.545 28.128C344.003 28.3413 344.398 28.6613 344.729 29.088C345.059 29.5147 345.225 30.0747 345.225 30.768C345.225 31.3653 345.07 31.92 344.76 32.432C344.451 32.944 343.998 33.3547 343.401 33.664C342.803 33.9627 342.094 34.112 341.273 34.112ZM354.015 31.872H349.567L348.831 34H346.479L350.495 22.816H353.103L357.119 34H354.751L354.015 31.872ZM353.407 30.08L351.791 25.408L350.174 30.08H353.407Z" fill="#FAFAFA"/>
<path d="M33.2706 124.624H26.1426V128.386C26.4506 128.005 26.8906 127.697 27.4626 127.462C28.0346 127.213 28.6433 127.088 29.2886 127.088C30.4619 127.088 31.4226 127.345 32.1706 127.858C32.9186 128.371 33.4613 129.031 33.7986 129.838C34.1359 130.63 34.3046 131.481 34.3046 132.39C34.3046 134.077 33.8206 135.433 32.8526 136.46C31.8993 137.487 30.5353 138 28.7606 138C27.0886 138 25.7539 137.582 24.7566 136.746C23.7593 135.91 23.1946 134.817 23.0626 133.468H26.0546C26.1866 134.055 26.4799 134.524 26.9346 134.876C27.4039 135.228 27.9979 135.404 28.7166 135.404C29.5819 135.404 30.2346 135.133 30.6746 134.59C31.1146 134.047 31.3346 133.329 31.3346 132.434C31.3346 131.525 31.1073 130.835 30.6526 130.366C30.2126 129.882 29.5599 129.64 28.6946 129.64C28.0786 129.64 27.5653 129.794 27.1546 130.102C26.7439 130.41 26.4506 130.821 26.2746 131.334H23.3266V121.918H33.2706V124.624ZM37.7488 129.772C37.7488 127.235 38.2035 125.247 39.1128 123.81C40.0368 122.373 41.5621 121.654 43.6888 121.654C45.8155 121.654 47.3335 122.373 48.2428 123.81C49.1668 125.247 49.6288 127.235 49.6288 129.772C49.6288 132.324 49.1668 134.326 48.2428 135.778C47.3335 137.23 45.8155 137.956 43.6888 137.956C41.5621 137.956 40.0368 137.23 39.1128 135.778C38.2035 134.326 37.7488 132.324 37.7488 129.772ZM46.5928 129.772C46.5928 128.687 46.5195 127.777 46.3728 127.044C46.2408 126.296 45.9621 125.687 45.5368 125.218C45.1261 124.749 44.5101 124.514 43.6888 124.514C42.8675 124.514 42.2441 124.749 41.8188 125.218C41.4081 125.687 41.1295 126.296 40.9828 127.044C40.8508 127.777 40.7848 128.687 40.7848 129.772C40.7848 130.887 40.8508 131.825 40.9828 132.588C41.1148 133.336 41.3935 133.945 41.8188 134.414C42.2441 134.869 42.8675 135.096 43.6888 135.096C44.5101 135.096 45.1335 134.869 45.5588 134.414C45.9841 133.945 46.2628 133.336 46.3948 132.588C46.5268 131.825 46.5928 130.887 46.5928 129.772ZM52.9395 134.876V132.456L60.1335 122.16H63.7195V132.192H65.6555V134.876H63.7195V138H60.6395V134.876H52.9395ZM60.8375 125.46L56.3275 132.192H60.8375V125.46ZM78.9244 124.294L73.0724 138H69.9484L75.8444 124.646H68.3204V122.006H78.9244V124.294ZM87.8373 124.8V121.962H93.1393V138H89.9713V124.8H87.8373ZM98.25 134.524C99.658 133.351 100.78 132.375 101.616 131.598C102.452 130.806 103.149 129.985 103.706 129.134C104.263 128.283 104.542 127.447 104.542 126.626C104.542 125.878 104.366 125.291 104.014 124.866C103.662 124.441 103.119 124.228 102.386 124.228C101.653 124.228 101.088 124.477 100.692 124.976C100.296 125.46 100.091 126.127 100.076 126.978H97.084C97.1427 125.218 97.6633 123.883 98.646 122.974C99.6433 122.065 100.905 121.61 102.43 121.61C104.102 121.61 105.385 122.057 106.28 122.952C107.175 123.832 107.622 124.998 107.622 126.45C107.622 127.594 107.314 128.687 106.698 129.728C106.082 130.769 105.378 131.679 104.586 132.456C103.794 133.219 102.76 134.143 101.484 135.228H107.974V137.78H97.106V135.492L98.25 134.524ZM110.883 134.876V132.456L118.077 122.16H121.663V132.192H123.599V134.876H121.663V138H118.583V134.876H110.883ZM118.781 125.46L114.271 132.192H118.781V125.46ZM137.44 124.624H130.312V128.386C130.62 128.005 131.06 127.697 131.632 127.462C132.204 127.213 132.812 127.088 133.458 127.088C134.631 127.088 135.592 127.345 136.34 127.858C137.088 128.371 137.63 129.031 137.968 129.838C138.305 130.63 138.474 131.481 138.474 132.39C138.474 134.077 137.99 135.433 137.022 136.46C136.068 137.487 134.704 138 132.93 138C131.258 138 129.923 137.582 128.926 136.746C127.928 135.91 127.364 134.817 127.232 133.468H130.224C130.356 134.055 130.649 134.524 131.104 134.876C131.573 135.228 132.167 135.404 132.886 135.404C133.751 135.404 134.404 135.133 134.844 134.59C135.284 134.047 135.504 133.329 135.504 132.434C135.504 131.525 135.276 130.835 134.822 130.366C134.382 129.882 133.729 129.64 132.864 129.64C132.248 129.64 131.734 129.794 131.324 130.102C130.913 130.41 130.62 130.821 130.444 131.334H127.496V121.918H137.44V124.624ZM158.468 124.294L152.616 138H149.492L155.388 124.646H147.864V122.006H158.468V124.294ZM169.729 125.966C169.582 125.35 169.326 124.888 168.959 124.58C168.607 124.272 168.094 124.118 167.419 124.118C166.407 124.118 165.659 124.529 165.175 125.35C164.706 126.157 164.464 127.477 164.449 129.31C164.801 128.723 165.314 128.269 165.989 127.946C166.664 127.609 167.397 127.44 168.189 127.44C169.142 127.44 169.986 127.645 170.719 128.056C171.452 128.467 172.024 129.068 172.435 129.86C172.846 130.637 173.051 131.576 173.051 132.676C173.051 133.717 172.838 134.649 172.413 135.47C172.002 136.277 171.394 136.907 170.587 137.362C169.78 137.817 168.82 138.044 167.705 138.044C166.18 138.044 164.977 137.707 164.097 137.032C163.232 136.357 162.623 135.419 162.271 134.216C161.934 132.999 161.765 131.503 161.765 129.728C161.765 127.044 162.227 125.02 163.151 123.656C164.075 122.277 165.534 121.588 167.529 121.588C169.069 121.588 170.264 122.006 171.115 122.842C171.966 123.678 172.457 124.719 172.589 125.966H169.729ZM167.485 129.97C166.708 129.97 166.055 130.197 165.527 130.652C164.999 131.107 164.735 131.767 164.735 132.632C164.735 133.497 164.977 134.179 165.461 134.678C165.96 135.177 166.656 135.426 167.551 135.426C168.343 135.426 168.966 135.184 169.421 134.7C169.89 134.216 170.125 133.563 170.125 132.742C170.125 131.891 169.898 131.217 169.443 130.718C169.003 130.219 168.35 129.97 167.485 129.97ZM179.269 129.508C177.802 128.745 177.069 127.565 177.069 125.966C177.069 125.174 177.267 124.455 177.663 123.81C178.074 123.15 178.682 122.629 179.489 122.248C180.31 121.852 181.308 121.654 182.481 121.654C183.654 121.654 184.644 121.852 185.451 122.248C186.272 122.629 186.881 123.15 187.277 123.81C187.688 124.455 187.893 125.174 187.893 125.966C187.893 126.773 187.695 127.484 187.299 128.1C186.903 128.701 186.375 129.171 185.715 129.508C186.522 129.86 187.152 130.373 187.607 131.048C188.062 131.723 188.289 132.522 188.289 133.446C188.289 134.443 188.032 135.316 187.519 136.064C187.02 136.797 186.331 137.362 185.451 137.758C184.571 138.154 183.581 138.352 182.481 138.352C181.381 138.352 180.391 138.154 179.511 137.758C178.646 137.362 177.956 136.797 177.443 136.064C176.944 135.316 176.695 134.443 176.695 133.446C176.695 132.522 176.922 131.723 177.377 131.048C177.832 130.359 178.462 129.845 179.269 129.508ZM184.901 126.406C184.901 125.687 184.681 125.13 184.241 124.734C183.816 124.338 183.229 124.14 182.481 124.14C181.748 124.14 181.161 124.338 180.721 124.734C180.296 125.13 180.083 125.695 180.083 126.428C180.083 127.088 180.303 127.616 180.743 128.012C181.198 128.408 181.777 128.606 182.481 128.606C183.185 128.606 183.764 128.408 184.219 128.012C184.674 127.601 184.901 127.066 184.901 126.406ZM182.481 130.85C181.645 130.85 180.963 131.063 180.435 131.488C179.922 131.913 179.665 132.522 179.665 133.314C179.665 134.047 179.914 134.649 180.413 135.118C180.926 135.573 181.616 135.8 182.481 135.8C183.346 135.8 184.028 135.565 184.527 135.096C185.026 134.627 185.275 134.033 185.275 133.314C185.275 132.537 185.018 131.935 184.505 131.51C183.992 131.07 183.317 130.85 182.481 130.85ZM195.386 133.49C195.503 134.135 195.767 134.634 196.178 134.986C196.603 135.323 197.168 135.492 197.872 135.492C198.781 135.492 199.441 135.118 199.852 134.37C200.263 133.607 200.468 132.331 200.468 130.542C200.131 131.011 199.654 131.378 199.038 131.642C198.437 131.906 197.784 132.038 197.08 132.038C196.141 132.038 195.291 131.847 194.528 131.466C193.78 131.07 193.186 130.491 192.746 129.728C192.306 128.951 192.086 128.012 192.086 126.912C192.086 125.284 192.57 123.993 193.538 123.04C194.506 122.072 195.826 121.588 197.498 121.588C199.581 121.588 201.047 122.255 201.898 123.59C202.763 124.925 203.196 126.934 203.196 129.618C203.196 131.525 203.027 133.087 202.69 134.304C202.367 135.521 201.803 136.445 200.996 137.076C200.204 137.707 199.119 138.022 197.74 138.022C196.655 138.022 195.731 137.817 194.968 137.406C194.205 136.981 193.619 136.431 193.208 135.756C192.812 135.067 192.585 134.311 192.526 133.49H195.386ZM197.718 129.53C198.481 129.53 199.082 129.295 199.522 128.826C199.962 128.357 200.182 127.726 200.182 126.934C200.182 126.069 199.947 125.401 199.478 124.932C199.023 124.448 198.4 124.206 197.608 124.206C196.816 124.206 196.185 124.455 195.716 124.954C195.261 125.438 195.034 126.083 195.034 126.89C195.034 127.667 195.254 128.305 195.694 128.804C196.149 129.288 196.823 129.53 197.718 129.53ZM214.004 134.524C215.412 133.351 216.534 132.375 217.37 131.598C218.206 130.806 218.902 129.985 219.46 129.134C220.017 128.283 220.296 127.447 220.296 126.626C220.296 125.878 220.12 125.291 219.768 124.866C219.416 124.441 218.873 124.228 218.14 124.228C217.406 124.228 216.842 124.477 216.446 124.976C216.05 125.46 215.844 126.127 215.83 126.978H212.838C212.896 125.218 213.417 123.883 214.4 122.974C215.397 122.065 216.658 121.61 218.184 121.61C219.856 121.61 221.139 122.057 222.034 122.952C222.928 123.832 223.376 124.998 223.376 126.45C223.376 127.594 223.068 128.687 222.452 129.728C221.836 130.769 221.132 131.679 220.34 132.456C219.548 133.219 218.514 134.143 217.238 135.228H223.728V137.78H212.86V135.492L214.004 134.524ZM226.812 126.186C226.886 124.719 227.399 123.59 228.352 122.798C229.32 121.991 230.589 121.588 232.158 121.588C233.229 121.588 234.146 121.779 234.908 122.16C235.671 122.527 236.243 123.033 236.624 123.678C237.02 124.309 237.218 125.027 237.218 125.834C237.218 126.758 236.976 127.543 236.492 128.188C236.023 128.819 235.458 129.244 234.798 129.464V129.552C235.649 129.816 236.309 130.285 236.778 130.96C237.262 131.635 237.504 132.5 237.504 133.556C237.504 134.436 237.299 135.221 236.888 135.91C236.492 136.599 235.898 137.142 235.106 137.538C234.329 137.919 233.39 138.11 232.29 138.11C230.633 138.11 229.284 137.692 228.242 136.856C227.201 136.02 226.651 134.788 226.592 133.16H229.584C229.614 133.879 229.856 134.458 230.31 134.898C230.78 135.323 231.418 135.536 232.224 135.536C232.972 135.536 233.544 135.331 233.94 134.92C234.351 134.495 234.556 133.952 234.556 133.292C234.556 132.412 234.278 131.781 233.72 131.4C233.163 131.019 232.298 130.828 231.124 130.828H230.486V128.298H231.124C233.207 128.298 234.248 127.601 234.248 126.208C234.248 125.577 234.058 125.086 233.676 124.734C233.31 124.382 232.774 124.206 232.07 124.206C231.381 124.206 230.846 124.397 230.464 124.778C230.098 125.145 229.885 125.614 229.826 126.186H226.812ZM240.906 134.876V132.456L248.1 122.16H251.686V132.192H253.622V134.876H251.686V138H248.606V134.876H240.906ZM248.804 125.46L244.294 132.192H248.804V125.46ZM267.463 124.624H260.335V128.386C260.643 128.005 261.083 127.697 261.655 127.462C262.227 127.213 262.836 127.088 263.481 127.088C264.655 127.088 265.615 127.345 266.363 127.858C267.111 128.371 267.654 129.031 267.991 129.838C268.329 130.63 268.497 131.481 268.497 132.39C268.497 134.077 268.013 135.433 267.045 136.46C266.092 137.487 264.728 138 262.953 138C261.281 138 259.947 137.582 258.949 136.746C257.952 135.91 257.387 134.817 257.255 133.468H260.247C260.379 134.055 260.673 134.524 261.127 134.876C261.597 135.228 262.191 135.404 262.909 135.404C263.775 135.404 264.427 135.133 264.867 134.59C265.307 134.047 265.527 133.329 265.527 132.434C265.527 131.525 265.3 130.835 264.845 130.366C264.405 129.882 263.753 129.64 262.887 129.64C262.271 129.64 261.758 129.794 261.347 130.102C260.937 130.41 260.643 130.821 260.467 131.334H257.519V121.918H267.463V124.624Z" fill="#FAFAFA"/>
<path d="M21.9256 165.161C21.9256 164.413 22.0943 163.742 22.4316 163.148C22.769 162.547 23.2273 162.077 23.8066 161.74C24.3933 161.403 25.0423 161.234 25.7536 161.234C26.5896 161.234 27.3193 161.436 27.9426 161.839C28.566 162.242 29.0206 162.814 29.3066 163.555H28.1076C27.895 163.093 27.587 162.737 27.1836 162.488C26.7876 162.239 26.311 162.114 25.7536 162.114C25.2183 162.114 24.738 162.239 24.3126 162.488C23.8873 162.737 23.5536 163.093 23.3116 163.555C23.0696 164.01 22.9486 164.545 22.9486 165.161C22.9486 165.77 23.0696 166.305 23.3116 166.767C23.5536 167.222 23.8873 167.574 24.3126 167.823C24.738 168.072 25.2183 168.197 25.7536 168.197C26.311 168.197 26.7876 168.076 27.1836 167.834C27.587 167.585 27.895 167.229 28.1076 166.767H29.3066C29.0206 167.5 28.566 168.069 27.9426 168.472C27.3193 168.868 26.5896 169.066 25.7536 169.066C25.0423 169.066 24.3933 168.901 23.8066 168.571C23.2273 168.234 22.769 167.768 22.4316 167.174C22.0943 166.58 21.9256 165.909 21.9256 165.161ZM30.4227 165.964C30.4227 165.348 30.5474 164.809 30.7967 164.347C31.046 163.878 31.387 163.515 31.8197 163.258C32.2597 163.001 32.7474 162.873 33.2827 162.873C33.8107 162.873 34.269 162.987 34.6577 163.214C35.0464 163.441 35.336 163.727 35.5267 164.072V162.972H36.5387V169H35.5267V167.878C35.3287 168.23 35.0317 168.523 34.6357 168.758C34.247 168.985 33.7924 169.099 33.2717 169.099C32.7364 169.099 32.2524 168.967 31.8197 168.703C31.387 168.439 31.046 168.069 30.7967 167.592C30.5474 167.115 30.4227 166.573 30.4227 165.964ZM35.5267 165.975C35.5267 165.52 35.435 165.124 35.2517 164.787C35.0684 164.45 34.819 164.193 34.5037 164.017C34.1957 163.834 33.8547 163.742 33.4807 163.742C33.1067 163.742 32.7657 163.83 32.4577 164.006C32.1497 164.182 31.904 164.439 31.7207 164.776C31.5374 165.113 31.4457 165.509 31.4457 165.964C31.4457 166.426 31.5374 166.829 31.7207 167.174C31.904 167.511 32.1497 167.772 32.4577 167.955C32.7657 168.131 33.1067 168.219 33.4807 168.219C33.8547 168.219 34.1957 168.131 34.5037 167.955C34.819 167.772 35.0684 167.511 35.2517 167.174C35.435 166.829 35.5267 166.43 35.5267 165.975ZM39.2313 163.951C39.4073 163.606 39.6566 163.339 39.9793 163.148C40.3093 162.957 40.709 162.862 41.1783 162.862V163.896H40.9143C39.7923 163.896 39.2313 164.505 39.2313 165.722V169H38.2303V162.972H39.2313V163.951ZM41.9598 165.964C41.9598 165.348 42.0845 164.809 42.3338 164.347C42.5831 163.878 42.9241 163.515 43.3568 163.258C43.7968 163.001 44.2881 162.873 44.8308 162.873C45.3002 162.873 45.7365 162.983 46.1398 163.203C46.5431 163.416 46.8511 163.698 47.0638 164.05V160.86H48.0758V169H47.0638V167.867C46.8658 168.226 46.5725 168.523 46.1838 168.758C45.7951 168.985 45.3405 169.099 44.8198 169.099C44.2845 169.099 43.7968 168.967 43.3568 168.703C42.9241 168.439 42.5831 168.069 42.3338 167.592C42.0845 167.115 41.9598 166.573 41.9598 165.964ZM47.0638 165.975C47.0638 165.52 46.9722 165.124 46.7888 164.787C46.6055 164.45 46.3561 164.193 46.0408 164.017C45.7328 163.834 45.3918 163.742 45.0178 163.742C44.6438 163.742 44.3028 163.83 43.9948 164.006C43.6868 164.182 43.4411 164.439 43.2578 164.776C43.0745 165.113 42.9828 165.509 42.9828 165.964C42.9828 166.426 43.0745 166.829 43.2578 167.174C43.4411 167.511 43.6868 167.772 43.9948 167.955C44.3028 168.131 44.6438 168.219 45.0178 168.219C45.3918 168.219 45.7328 168.131 46.0408 167.955C46.3561 167.772 46.6055 167.511 46.7888 167.174C46.9722 166.829 47.0638 166.43 47.0638 165.975ZM55.692 162.862C56.1467 162.862 56.5574 162.961 56.924 163.159C57.2907 163.35 57.5767 163.639 57.782 164.028C57.9947 164.417 58.101 164.89 58.101 165.447V169H57.111V165.59C57.111 164.989 56.9607 164.53 56.66 164.215C56.3594 163.892 55.9487 163.731 55.428 163.731C54.9 163.731 54.4784 163.896 54.163 164.226C53.855 164.556 53.701 165.036 53.701 165.667V169H52.7V160.86H53.701V163.83C53.899 163.522 54.1704 163.284 54.515 163.115C54.867 162.946 55.2594 162.862 55.692 162.862ZM62.3652 169.099C61.8005 169.099 61.2872 168.971 60.8252 168.714C60.3705 168.457 60.0112 168.094 59.7472 167.625C59.4905 167.148 59.3622 166.598 59.3622 165.975C59.3622 165.359 59.4942 164.816 59.7582 164.347C60.0295 163.87 60.3962 163.507 60.8582 163.258C61.3202 163.001 61.8372 162.873 62.4092 162.873C62.9812 162.873 63.4982 163.001 63.9602 163.258C64.4222 163.507 64.7852 163.867 65.0492 164.336C65.3205 164.805 65.4562 165.352 65.4562 165.975C65.4562 166.598 65.3168 167.148 65.0382 167.625C64.7668 168.094 64.3965 168.457 63.9272 168.714C63.4578 168.971 62.9372 169.099 62.3652 169.099ZM62.3652 168.219C62.7245 168.219 63.0618 168.135 63.3772 167.966C63.6925 167.797 63.9455 167.544 64.1362 167.207C64.3342 166.87 64.4332 166.459 64.4332 165.975C64.4332 165.491 64.3378 165.08 64.1472 164.743C63.9565 164.406 63.7072 164.156 63.3992 163.995C63.0912 163.826 62.7575 163.742 62.3982 163.742C62.0315 163.742 61.6942 163.826 61.3862 163.995C61.0855 164.156 60.8435 164.406 60.6602 164.743C60.4768 165.08 60.3852 165.491 60.3852 165.975C60.3852 166.466 60.4732 166.881 60.6492 167.218C60.8325 167.555 61.0745 167.808 61.3752 167.977C61.6758 168.138 62.0058 168.219 62.3652 168.219ZM67.7733 160.86V169H66.7723V160.86H67.7733ZM69.1053 165.964C69.1053 165.348 69.23 164.809 69.4793 164.347C69.7287 163.878 70.0697 163.515 70.5023 163.258C70.9423 163.001 71.4337 162.873 71.9763 162.873C72.4457 162.873 72.882 162.983 73.2853 163.203C73.6887 163.416 73.9967 163.698 74.2093 164.05V160.86H75.2213V169H74.2093V167.867C74.0113 168.226 73.718 168.523 73.3293 168.758C72.9407 168.985 72.486 169.099 71.9653 169.099C71.43 169.099 70.9423 168.967 70.5023 168.703C70.0697 168.439 69.7287 168.069 69.4793 167.592C69.23 167.115 69.1053 166.573 69.1053 165.964ZM74.2093 165.975C74.2093 165.52 74.1177 165.124 73.9343 164.787C73.751 164.45 73.5017 164.193 73.1863 164.017C72.8783 163.834 72.5373 163.742 72.1633 163.742C71.7893 163.742 71.4483 163.83 71.1403 164.006C70.8323 164.182 70.5867 164.439 70.4033 164.776C70.22 165.113 70.1283 165.509 70.1283 165.964C70.1283 166.426 70.22 166.829 70.4033 167.174C70.5867 167.511 70.8323 167.772 71.1403 167.955C71.4483 168.131 71.7893 168.219 72.1633 168.219C72.5373 168.219 72.8783 168.131 73.1863 167.955C73.5017 167.772 73.751 167.511 73.9343 167.174C74.1177 166.829 74.2093 166.43 74.2093 165.975ZM82.4129 165.755C82.4129 165.946 82.4019 166.147 82.3799 166.36H77.5619C77.5986 166.954 77.8003 167.42 78.1669 167.757C78.5409 168.087 78.9919 168.252 79.5199 168.252C79.9526 168.252 80.3119 168.153 80.5979 167.955C80.8913 167.75 81.0966 167.478 81.2139 167.141H82.2919C82.1306 167.72 81.8079 168.193 81.3239 168.56C80.8399 168.919 80.2386 169.099 79.5199 169.099C78.9479 169.099 78.4346 168.971 77.9799 168.714C77.5326 168.457 77.1806 168.094 76.9239 167.625C76.6673 167.148 76.5389 166.598 76.5389 165.975C76.5389 165.352 76.6636 164.805 76.9129 164.336C77.1623 163.867 77.5106 163.507 77.9579 163.258C78.4126 163.001 78.9333 162.873 79.5199 162.873C80.0919 162.873 80.5979 162.998 81.0379 163.247C81.4779 163.496 81.8153 163.841 82.0499 164.281C82.2919 164.714 82.4129 165.205 82.4129 165.755ZM81.3789 165.546C81.3789 165.165 81.2946 164.838 81.1259 164.567C80.9573 164.288 80.7263 164.079 80.4329 163.94C80.1469 163.793 79.8279 163.72 79.4759 163.72C78.9699 163.72 78.5373 163.881 78.1779 164.204C77.8259 164.527 77.6243 164.974 77.5729 165.546H81.3789ZM84.7352 163.951C84.9112 163.606 85.1605 163.339 85.4832 163.148C85.8132 162.957 86.2129 162.862 86.6822 162.862V163.896H86.4182C85.2962 163.896 84.7352 164.505 84.7352 165.722V169H83.7342V162.972H84.7352V163.951ZM93.7073 162.862C94.4407 162.862 95.0347 163.086 95.4893 163.533C95.944 163.973 96.1713 164.611 96.1713 165.447V169H95.1813V165.59C95.1813 164.989 95.031 164.53 94.7303 164.215C94.4297 163.892 94.019 163.731 93.4983 163.731C92.9703 163.731 92.5487 163.896 92.2333 164.226C91.9253 164.556 91.7713 165.036 91.7713 165.667V169H90.7703V162.972H91.7713V163.83C91.9693 163.522 92.237 163.284 92.5743 163.115C92.919 162.946 93.2967 162.862 93.7073 162.862ZM97.4325 165.964C97.4325 165.348 97.5571 164.809 97.8065 164.347C98.0558 163.878 98.3968 163.515 98.8295 163.258C99.2695 163.001 99.7571 162.873 100.292 162.873C100.82 162.873 101.279 162.987 101.667 163.214C102.056 163.441 102.346 163.727 102.536 164.072V162.972H103.548V169H102.536V167.878C102.338 168.23 102.041 168.523 101.645 168.758C101.257 168.985 100.802 169.099 100.281 169.099C99.7461 169.099 99.2621 168.967 98.8295 168.703C98.3968 168.439 98.0558 168.069 97.8065 167.592C97.5571 167.115 97.4325 166.573 97.4325 165.964ZM102.536 165.975C102.536 165.52 102.445 165.124 102.261 164.787C102.078 164.45 101.829 164.193 101.513 164.017C101.205 163.834 100.864 163.742 100.49 163.742C100.116 163.742 99.7755 163.83 99.4675 164.006C99.1595 164.182 98.9138 164.439 98.7305 164.776C98.5471 165.113 98.4555 165.509 98.4555 165.964C98.4555 166.426 98.5471 166.829 98.7305 167.174C98.9138 167.511 99.1595 167.772 99.4675 167.955C99.7755 168.131 100.116 168.219 100.49 168.219C100.864 168.219 101.205 168.131 101.513 167.955C101.829 167.772 102.078 167.511 102.261 167.174C102.445 166.829 102.536 166.43 102.536 165.975ZM112.489 162.862C112.958 162.862 113.376 162.961 113.743 163.159C114.11 163.35 114.399 163.639 114.612 164.028C114.825 164.417 114.931 164.89 114.931 165.447V169H113.941V165.59C113.941 164.989 113.791 164.53 113.49 164.215C113.197 163.892 112.797 163.731 112.291 163.731C111.77 163.731 111.356 163.9 111.048 164.237C110.74 164.567 110.586 165.047 110.586 165.678V169H109.596V165.59C109.596 164.989 109.446 164.53 109.145 164.215C108.852 163.892 108.452 163.731 107.946 163.731C107.425 163.731 107.011 163.9 106.703 164.237C106.395 164.567 106.241 165.047 106.241 165.678V169H105.24V162.972H106.241V163.841C106.439 163.526 106.703 163.284 107.033 163.115C107.37 162.946 107.741 162.862 108.144 162.862C108.65 162.862 109.097 162.976 109.486 163.203C109.875 163.43 110.164 163.764 110.355 164.204C110.524 163.779 110.802 163.449 111.191 163.214C111.58 162.979 112.012 162.862 112.489 162.862ZM122.073 165.755C122.073 165.946 122.062 166.147 122.04 166.36H117.222C117.259 166.954 117.46 167.42 117.827 167.757C118.201 168.087 118.652 168.252 119.18 168.252C119.613 168.252 119.972 168.153 120.258 167.955C120.551 167.75 120.757 167.478 120.874 167.141H121.952C121.791 167.72 121.468 168.193 120.984 168.56C120.5 168.919 119.899 169.099 119.18 169.099C118.608 169.099 118.095 168.971 117.64 168.714C117.193 168.457 116.841 168.094 116.584 167.625C116.327 167.148 116.199 166.598 116.199 165.975C116.199 165.352 116.324 164.805 116.573 164.336C116.822 163.867 117.171 163.507 117.618 163.258C118.073 163.001 118.593 162.873 119.18 162.873C119.752 162.873 120.258 162.998 120.698 163.247C121.138 163.496 121.475 163.841 121.71 164.281C121.952 164.714 122.073 165.205 122.073 165.755ZM121.039 165.546C121.039 165.165 120.955 164.838 120.786 164.567C120.617 164.288 120.386 164.079 120.093 163.94C119.807 163.793 119.488 163.72 119.136 163.72C118.63 163.72 118.197 163.881 117.838 164.204C117.486 164.527 117.284 164.974 117.233 165.546H121.039Z" fill="#FAFAFA"/>
<path d="M28.4991 179.322V187H26.9591V183.733H23.6701V187H22.1301V179.322H23.6701V182.479H26.9591V179.322H28.4991ZM29.6189 183.931C29.6189 183.315 29.7399 182.769 29.9819 182.292C30.2312 181.815 30.5649 181.449 30.9829 181.192C31.4082 180.935 31.8812 180.807 32.4019 180.807C32.8565 180.807 33.2525 180.899 33.5899 181.082C33.9345 181.265 34.2095 181.496 34.4149 181.775V180.906H35.9659V187H34.4149V186.109C34.2169 186.395 33.9419 186.633 33.5899 186.824C33.2452 187.007 32.8455 187.099 32.3909 187.099C31.8775 187.099 31.4082 186.967 30.9829 186.703C30.5649 186.439 30.2312 186.069 29.9819 185.592C29.7399 185.108 29.6189 184.554 29.6189 183.931ZM34.4149 183.953C34.4149 183.579 34.3415 183.26 34.1949 182.996C34.0482 182.725 33.8502 182.519 33.6009 182.38C33.3515 182.233 33.0839 182.16 32.7979 182.16C32.5119 182.16 32.2479 182.23 32.0059 182.369C31.7639 182.508 31.5659 182.714 31.4119 182.985C31.2652 183.249 31.1919 183.564 31.1919 183.931C31.1919 184.298 31.2652 184.62 31.4119 184.899C31.5659 185.17 31.7639 185.379 32.0059 185.526C32.2552 185.673 32.5192 185.746 32.7979 185.746C33.0839 185.746 33.3515 185.676 33.6009 185.537C33.8502 185.39 34.0482 185.185 34.1949 184.921C34.3415 184.65 34.4149 184.327 34.4149 183.953ZM40.2639 182.171H39.1969V187H37.6349V182.171H36.9419V180.906H37.6349V180.598C37.6349 179.85 37.8476 179.3 38.2729 178.948C38.6983 178.596 39.3399 178.431 40.1979 178.453V179.751C39.8239 179.744 39.5636 179.806 39.4169 179.938C39.2703 180.07 39.1969 180.308 39.1969 180.653V180.906H40.2639V182.171ZM43.5939 187.099C43.0953 187.099 42.6479 187.011 42.2519 186.835C41.8559 186.652 41.5406 186.406 41.3059 186.098C41.0786 185.79 40.9539 185.449 40.9319 185.075H42.4829C42.5123 185.31 42.6259 185.504 42.8239 185.658C43.0293 185.812 43.2823 185.889 43.5829 185.889C43.8763 185.889 44.1036 185.83 44.2649 185.713C44.4336 185.596 44.5179 185.445 44.5179 185.262C44.5179 185.064 44.4153 184.917 44.2099 184.822C44.0119 184.719 43.6929 184.609 43.2529 184.492C42.7983 184.382 42.4243 184.268 42.1309 184.151C41.8449 184.034 41.5956 183.854 41.3829 183.612C41.1776 183.37 41.0749 183.044 41.0749 182.633C41.0749 182.296 41.1703 181.988 41.3609 181.709C41.5589 181.43 41.8376 181.21 42.1969 181.049C42.5636 180.888 42.9926 180.807 43.4839 180.807C44.2099 180.807 44.7893 180.99 45.2219 181.357C45.6546 181.716 45.8929 182.204 45.9369 182.82H44.4629C44.4409 182.578 44.3383 182.387 44.1549 182.248C43.9789 182.101 43.7406 182.028 43.4399 182.028C43.1613 182.028 42.9449 182.079 42.7909 182.182C42.6443 182.285 42.5709 182.428 42.5709 182.611C42.5709 182.816 42.6736 182.974 42.8789 183.084C43.0843 183.187 43.4033 183.293 43.8359 183.403C44.2759 183.513 44.6389 183.627 44.9249 183.744C45.2109 183.861 45.4566 184.045 45.6619 184.294C45.8746 184.536 45.9846 184.859 45.9919 185.262C45.9919 185.614 45.8929 185.929 45.6949 186.208C45.5043 186.487 45.2256 186.707 44.8589 186.868C44.4996 187.022 44.0779 187.099 43.5939 187.099ZM46.8601 183.931C46.8601 183.315 46.9811 182.769 47.2231 182.292C47.4724 181.815 47.8061 181.449 48.2241 181.192C48.6494 180.935 49.1224 180.807 49.6431 180.807C50.0977 180.807 50.4937 180.899 50.8311 181.082C51.1757 181.265 51.4507 181.496 51.6561 181.775V180.906H53.2071V187H51.6561V186.109C51.4581 186.395 51.1831 186.633 50.8311 186.824C50.4864 187.007 50.0867 187.099 49.6321 187.099C49.1187 187.099 48.6494 186.967 48.2241 186.703C47.8061 186.439 47.4724 186.069 47.2231 185.592C46.9811 185.108 46.8601 184.554 46.8601 183.931ZM51.6561 183.953C51.6561 183.579 51.5827 183.26 51.4361 182.996C51.2894 182.725 51.0914 182.519 50.8421 182.38C50.5927 182.233 50.3251 182.16 50.0391 182.16C49.7531 182.16 49.4891 182.23 49.2471 182.369C49.0051 182.508 48.8071 182.714 48.6531 182.985C48.5064 183.249 48.4331 183.564 48.4331 183.931C48.4331 184.298 48.5064 184.62 48.6531 184.899C48.8071 185.17 49.0051 185.379 49.2471 185.526C49.4964 185.673 49.7604 185.746 50.0391 185.746C50.3251 185.746 50.5927 185.676 50.8421 185.537C51.0914 185.39 51.2894 185.185 51.4361 184.921C51.5827 184.65 51.6561 184.327 51.6561 183.953ZM56.5041 182.171V185.119C56.5041 185.324 56.5518 185.475 56.6471 185.57C56.7498 185.658 56.9185 185.702 57.1531 185.702H57.8681V187H56.9001C55.6021 187 54.9531 186.369 54.9531 185.108V182.171H54.2271V180.906H54.9531V179.399H56.5041V180.906H57.8681V182.171H56.5041ZM66.3049 185.537H63.2469L62.7409 187H61.1239L63.8849 179.311H65.6779L68.4389 187H66.8109L66.3049 185.537ZM65.8869 184.305L64.7759 181.093L63.6649 184.305H65.8869ZM71.0109 181.852C71.2089 181.529 71.4656 181.276 71.7809 181.093C72.1036 180.91 72.4702 180.818 72.8809 180.818V182.435H72.4739C71.9899 182.435 71.6232 182.549 71.3739 182.776C71.1319 183.003 71.0109 183.399 71.0109 183.964V187H69.4709V180.906H71.0109V181.852ZM73.5222 183.931C73.5222 183.315 73.6432 182.769 73.8852 182.292C74.1345 181.815 74.4718 181.449 74.8972 181.192C75.3225 180.935 75.7955 180.807 76.3162 180.807C76.7122 180.807 77.0898 180.895 77.4492 181.071C77.8085 181.24 78.0945 181.467 78.3072 181.753V178.86H79.8692V187H78.3072V186.098C78.1165 186.399 77.8488 186.641 77.5042 186.824C77.1595 187.007 76.7598 187.099 76.3052 187.099C75.7918 187.099 75.3225 186.967 74.8972 186.703C74.4718 186.439 74.1345 186.069 73.8852 185.592C73.6432 185.108 73.5222 184.554 73.5222 183.931ZM78.3182 183.953C78.3182 183.579 78.2448 183.26 78.0982 182.996C77.9515 182.725 77.7535 182.519 77.5042 182.38C77.2548 182.233 76.9872 182.16 76.7012 182.16C76.4152 182.16 76.1512 182.23 75.9092 182.369C75.6672 182.508 75.4692 182.714 75.3152 182.985C75.1685 183.249 75.0952 183.564 75.0952 183.931C75.0952 184.298 75.1685 184.62 75.3152 184.899C75.4692 185.17 75.6672 185.379 75.9092 185.526C76.1585 185.673 76.4225 185.746 76.7012 185.746C76.9872 185.746 77.2548 185.676 77.5042 185.537C77.7535 185.39 77.9515 185.185 78.0982 184.921C78.2448 184.65 78.3182 184.327 78.3182 183.953ZM84.0793 187.099C83.4926 187.099 82.9646 186.971 82.4953 186.714C82.0259 186.45 81.6556 186.08 81.3843 185.603C81.1203 185.126 80.9883 184.576 80.9883 183.953C80.9883 183.33 81.1239 182.78 81.3953 182.303C81.6739 181.826 82.0516 181.46 82.5283 181.203C83.0049 180.939 83.5366 180.807 84.1233 180.807C84.7099 180.807 85.2416 180.939 85.7183 181.203C86.1949 181.46 86.5689 181.826 86.8403 182.303C87.1189 182.78 87.2583 183.33 87.2583 183.953C87.2583 184.576 87.1153 185.126 86.8293 185.603C86.5506 186.08 86.1693 186.45 85.6853 186.714C85.2086 186.971 84.6733 187.099 84.0793 187.099ZM84.0793 185.757C84.3579 185.757 84.6183 185.691 84.8603 185.559C85.1096 185.42 85.3076 185.214 85.4543 184.943C85.6009 184.672 85.6743 184.342 85.6743 183.953C85.6743 183.374 85.5203 182.93 85.2123 182.622C84.9116 182.307 84.5413 182.149 84.1013 182.149C83.6613 182.149 83.2909 182.307 82.9903 182.622C82.6969 182.93 82.5503 183.374 82.5503 183.953C82.5503 184.532 82.6933 184.98 82.9793 185.295C83.2726 185.603 83.6393 185.757 84.0793 185.757Z" fill="#FAFAFA"/>
<path d="M170.861 162.147V164.71H173.655V165.535H170.861V168.175H173.985V169H169.86V161.322H173.985V162.147H170.861ZM178.646 169L177.216 166.756L175.841 169H174.796L176.743 166.008L174.796 162.972H175.929L177.359 165.205L178.723 162.972H179.768L177.832 165.953L179.779 169H178.646ZM181.765 164.083C181.963 163.738 182.256 163.452 182.645 163.225C183.041 162.99 183.499 162.873 184.02 162.873C184.555 162.873 185.039 163.001 185.472 163.258C185.912 163.515 186.256 163.878 186.506 164.347C186.755 164.809 186.88 165.348 186.88 165.964C186.88 166.573 186.755 167.115 186.506 167.592C186.256 168.069 185.912 168.439 185.472 168.703C185.039 168.967 184.555 169.099 184.02 169.099C183.506 169.099 183.052 168.985 182.656 168.758C182.267 168.523 181.97 168.234 181.765 167.889V171.86H180.764V162.972H181.765V164.083ZM185.857 165.964C185.857 165.509 185.765 165.113 185.582 164.776C185.398 164.439 185.149 164.182 184.834 164.006C184.526 163.83 184.185 163.742 183.811 163.742C183.444 163.742 183.103 163.834 182.788 164.017C182.48 164.193 182.23 164.453 182.04 164.798C181.856 165.135 181.765 165.528 181.765 165.975C181.765 166.43 181.856 166.829 182.04 167.174C182.23 167.511 182.48 167.772 182.788 167.955C183.103 168.131 183.444 168.219 183.811 168.219C184.185 168.219 184.526 168.131 184.834 167.955C185.149 167.772 185.398 167.511 185.582 167.174C185.765 166.829 185.857 166.426 185.857 165.964ZM188.714 161.993C188.523 161.993 188.362 161.927 188.23 161.795C188.098 161.663 188.032 161.502 188.032 161.311C188.032 161.12 188.098 160.959 188.23 160.827C188.362 160.695 188.523 160.629 188.714 160.629C188.897 160.629 189.051 160.695 189.176 160.827C189.308 160.959 189.374 161.12 189.374 161.311C189.374 161.502 189.308 161.663 189.176 161.795C189.051 161.927 188.897 161.993 188.714 161.993ZM189.198 162.972V169H188.197V162.972H189.198ZM191.905 163.951C192.081 163.606 192.33 163.339 192.653 163.148C192.983 162.957 193.383 162.862 193.852 162.862V163.896H193.588C192.466 163.896 191.905 164.505 191.905 165.722V169H190.904V162.972H191.905V163.951ZM200.2 162.972L196.57 171.838H195.536L196.724 168.934L194.293 162.972H195.404L197.296 167.856L199.166 162.972H200.2ZM203.765 165.964C203.765 165.348 203.889 164.809 204.139 164.347C204.388 163.878 204.729 163.515 205.162 163.258C205.602 163.001 206.093 162.873 206.636 162.873C207.105 162.873 207.541 162.983 207.945 163.203C208.348 163.416 208.656 163.698 208.869 164.05V160.86H209.881V169H208.869V167.867C208.671 168.226 208.377 168.523 207.989 168.758C207.6 168.985 207.145 169.099 206.625 169.099C206.089 169.099 205.602 168.967 205.162 168.703C204.729 168.439 204.388 168.069 204.139 167.592C203.889 167.115 203.765 166.573 203.765 165.964ZM208.869 165.975C208.869 165.52 208.777 165.124 208.594 164.787C208.41 164.45 208.161 164.193 207.846 164.017C207.538 163.834 207.197 163.742 206.823 163.742C206.449 163.742 206.108 163.83 205.8 164.006C205.492 164.182 205.246 164.439 205.063 164.776C204.879 165.113 204.788 165.509 204.788 165.964C204.788 166.426 204.879 166.829 205.063 167.174C205.246 167.511 205.492 167.772 205.8 167.955C206.108 168.131 206.449 168.219 206.823 168.219C207.197 168.219 207.538 168.131 207.846 167.955C208.161 167.772 208.41 167.511 208.594 167.174C208.777 166.829 208.869 166.43 208.869 165.975ZM211.198 165.964C211.198 165.348 211.323 164.809 211.572 164.347C211.821 163.878 212.162 163.515 212.595 163.258C213.035 163.001 213.523 162.873 214.058 162.873C214.586 162.873 215.044 162.987 215.433 163.214C215.822 163.441 216.111 163.727 216.302 164.072V162.972H217.314V169H216.302V167.878C216.104 168.23 215.807 168.523 215.411 168.758C215.022 168.985 214.568 169.099 214.047 169.099C213.512 169.099 213.028 168.967 212.595 168.703C212.162 168.439 211.821 168.069 211.572 167.592C211.323 167.115 211.198 166.573 211.198 165.964ZM216.302 165.975C216.302 165.52 216.21 165.124 216.027 164.787C215.844 164.45 215.594 164.193 215.279 164.017C214.971 163.834 214.63 163.742 214.256 163.742C213.882 163.742 213.541 163.83 213.233 164.006C212.925 164.182 212.679 164.439 212.496 164.776C212.313 165.113 212.221 165.509 212.221 165.964C212.221 166.426 212.313 166.829 212.496 167.174C212.679 167.511 212.925 167.772 213.233 167.955C213.541 168.131 213.882 168.219 214.256 168.219C214.63 168.219 214.971 168.131 215.279 167.955C215.594 167.772 215.844 167.511 216.027 167.174C216.21 166.829 216.302 166.43 216.302 165.975ZM220.227 163.797V167.35C220.227 167.643 220.289 167.852 220.414 167.977C220.538 168.094 220.755 168.153 221.063 168.153H221.8V169H220.898C220.34 169 219.922 168.872 219.644 168.615C219.365 168.358 219.226 167.937 219.226 167.35V163.797H218.445V162.972H219.226V161.454H220.227V162.972H221.8V163.797H220.227ZM228.513 165.755C228.513 165.946 228.502 166.147 228.48 166.36H223.662C223.698 166.954 223.9 167.42 224.267 167.757C224.641 168.087 225.092 168.252 225.62 168.252C226.052 168.252 226.412 168.153 226.698 167.955C226.991 167.75 227.196 167.478 227.314 167.141H228.392C228.23 167.72 227.908 168.193 227.424 168.56C226.94 168.919 226.338 169.099 225.62 169.099C225.048 169.099 224.534 168.971 224.08 168.714C223.632 168.457 223.28 168.094 223.024 167.625C222.767 167.148 222.639 166.598 222.639 165.975C222.639 165.352 222.763 164.805 223.013 164.336C223.262 163.867 223.61 163.507 224.058 163.258C224.512 163.001 225.033 162.873 225.62 162.873C226.192 162.873 226.698 162.998 227.138 163.247C227.578 163.496 227.915 163.841 228.15 164.281C228.392 164.714 228.513 165.205 228.513 165.755ZM227.479 165.546C227.479 165.165 227.394 164.838 227.226 164.567C227.057 164.288 226.826 164.079 226.533 163.94C226.247 163.793 225.928 163.72 225.576 163.72C225.07 163.72 224.637 163.881 224.278 164.204C223.926 164.527 223.724 164.974 223.673 165.546H227.479Z" fill="#FAFAFA"/>
<path d="M169.846 182.886C169.846 181.617 170.074 180.624 170.528 179.905C170.99 179.186 171.753 178.827 172.816 178.827C173.88 178.827 174.639 179.186 175.093 179.905C175.555 180.624 175.786 181.617 175.786 182.886C175.786 184.162 175.555 185.163 175.093 185.889C174.639 186.615 173.88 186.978 172.816 186.978C171.753 186.978 170.99 186.615 170.528 185.889C170.074 185.163 169.846 184.162 169.846 182.886ZM174.268 182.886C174.268 182.343 174.232 181.889 174.158 181.522C174.092 181.148 173.953 180.844 173.74 180.609C173.535 180.374 173.227 180.257 172.816 180.257C172.406 180.257 172.094 180.374 171.881 180.609C171.676 180.844 171.537 181.148 171.463 181.522C171.397 181.889 171.364 182.343 171.364 182.886C171.364 183.443 171.397 183.913 171.463 184.294C171.529 184.668 171.669 184.972 171.881 185.207C172.094 185.434 172.406 185.548 172.816 185.548C173.227 185.548 173.539 185.434 173.751 185.207C173.964 184.972 174.103 184.668 174.169 184.294C174.235 183.913 174.268 183.443 174.268 182.886ZM177.442 185.262C178.146 184.675 178.707 184.188 179.125 183.799C179.543 183.403 179.891 182.992 180.17 182.567C180.448 182.142 180.588 181.724 180.588 181.313C180.588 180.939 180.5 180.646 180.324 180.433C180.148 180.22 179.876 180.114 179.51 180.114C179.143 180.114 178.861 180.239 178.663 180.488C178.465 180.73 178.362 181.064 178.355 181.489H176.859C176.888 180.609 177.148 179.942 177.64 179.487C178.138 179.032 178.769 178.805 179.532 178.805C180.368 178.805 181.009 179.029 181.457 179.476C181.904 179.916 182.128 180.499 182.128 181.225C182.128 181.797 181.974 182.343 181.666 182.864C181.358 183.385 181.006 183.839 180.61 184.228C180.214 184.609 179.697 185.071 179.059 185.614H182.304V186.89H176.87V185.746L177.442 185.262ZM187.575 176.583L184.605 188.991H183.098L186.068 176.583H187.575ZM188.646 181.093C188.682 180.36 188.939 179.795 189.416 179.399C189.9 178.996 190.534 178.794 191.319 178.794C191.854 178.794 192.312 178.889 192.694 179.08C193.075 179.263 193.361 179.516 193.552 179.839C193.75 180.154 193.849 180.514 193.849 180.917C193.849 181.379 193.728 181.771 193.486 182.094C193.251 182.409 192.969 182.622 192.639 182.732V182.776C193.064 182.908 193.394 183.143 193.629 183.48C193.871 183.817 193.992 184.25 193.992 184.778C193.992 185.218 193.889 185.61 193.684 185.955C193.486 186.3 193.189 186.571 192.793 186.769C192.404 186.96 191.935 187.055 191.385 187.055C190.556 187.055 189.881 186.846 189.361 186.428C188.84 186.01 188.565 185.394 188.536 184.58H190.032C190.046 184.939 190.167 185.229 190.395 185.449C190.629 185.662 190.948 185.768 191.352 185.768C191.726 185.768 192.012 185.665 192.21 185.46C192.415 185.247 192.518 184.976 192.518 184.646C192.518 184.206 192.378 183.891 192.1 183.7C191.821 183.509 191.388 183.414 190.802 183.414H190.483V182.149H190.802C191.843 182.149 192.364 181.801 192.364 181.104C192.364 180.789 192.268 180.543 192.078 180.367C191.894 180.191 191.627 180.103 191.275 180.103C190.93 180.103 190.662 180.198 190.472 180.389C190.288 180.572 190.182 180.807 190.153 181.093H188.646ZM195.208 182.886C195.208 181.617 195.436 180.624 195.89 179.905C196.352 179.186 197.115 178.827 198.178 178.827C199.242 178.827 200.001 179.186 200.455 179.905C200.917 180.624 201.148 181.617 201.148 182.886C201.148 184.162 200.917 185.163 200.455 185.889C200.001 186.615 199.242 186.978 198.178 186.978C197.115 186.978 196.352 186.615 195.89 185.889C195.436 185.163 195.208 184.162 195.208 182.886ZM199.63 182.886C199.63 182.343 199.594 181.889 199.52 181.522C199.454 181.148 199.315 180.844 199.102 180.609C198.897 180.374 198.589 180.257 198.178 180.257C197.768 180.257 197.456 180.374 197.243 180.609C197.038 180.844 196.899 181.148 196.825 181.522C196.759 181.889 196.726 182.343 196.726 182.886C196.726 183.443 196.759 183.913 196.825 184.294C196.891 184.668 197.031 184.972 197.243 185.207C197.456 185.434 197.768 185.548 198.178 185.548C198.589 185.548 198.901 185.434 199.113 185.207C199.326 184.972 199.465 184.668 199.531 184.294C199.597 183.913 199.63 183.443 199.63 182.886Z" fill="#FAFAFA"/>
<rect x="303.4" y="159.4" width="41.2" height="30.2" rx="6.6" fill="#FAFAFA" fill-opacity="0.23"/>
<rect x="303.4" y="159.4" width="41.2" height="30.2" rx="6.6" stroke="#FAFAFA" stroke-width="0.8"/>
<path d="M332.5 160V172.5V189.5" stroke="#FAFAFA" stroke-width="0.8"/>
<path d="M304 170.5H315.5V176M315.5 189V182M304 176H309.5H315.5M315.5 176V182M304 182H309.5H315.5M332.5 165.5H345" stroke="#FAFAFA" stroke-width="0.7"/>
<path d="M332.5 171H345" stroke="#FAFAFA" stroke-width="0.7"/>
<path d="M332.5 176.5H340.5H345" stroke="#FAFAFA" stroke-width="0.7"/>
<path d="M332.5 182H345" stroke="#FAFAFA" stroke-width="0.7"/>
</g>
<defs>
<clipPath id="clip0_142_1220">
<rect width="377" height="217" rx="10" fill="white"/>
</clipPath>
</defs>
</svg>
