<svg width="22" height="34" viewBox="0 0 22 34" fill="none" xmlns="http://www.w3.org/2000/svg">
<path d="M16.6738 27.5205H6.91133C6.00383 27.5205 5.133 27.1355 4.51883 26.4663C3.90467 25.7972 3.59301 24.8988 3.66634 23.9913L4.42718 14.8613C4.45468 14.5772 4.35383 14.3022 4.16133 14.0913C3.96883 13.8805 3.703 13.7705 3.41884 13.7705H1.83301C1.45717 13.7705 1.14551 13.4588 1.14551 13.083C1.14551 12.7072 1.45717 12.3955 1.83301 12.3955H3.42801C4.09718 12.3955 4.72967 12.6797 5.17884 13.1655C5.42634 13.4405 5.60967 13.7613 5.7105 14.1188H17.1597C18.0855 14.1188 18.938 14.4855 19.5613 15.1455C20.1755 15.8147 20.4872 16.6855 20.4138 17.6113L19.9188 24.4863C19.818 26.1638 18.3513 27.5205 16.6738 27.5205ZM5.75634 15.4847L5.04134 24.1013C4.99551 24.633 5.16967 25.1372 5.52717 25.5313C5.88467 25.9255 6.37967 26.1363 6.91133 26.1363H16.6738C17.6272 26.1363 18.4888 25.3297 18.5622 24.3763L19.0572 17.5013C19.0938 16.9605 18.9197 16.4472 18.5622 16.0714C18.2047 15.6864 17.7097 15.4755 17.1688 15.4755H5.75634V15.4847Z" fill="currentColor"/>
<path d="M14.8958 32.1042C13.8875 32.1042 13.0625 31.2792 13.0625 30.2708C13.0625 29.2625 13.8875 28.4375 14.8958 28.4375C15.9042 28.4375 16.7292 29.2625 16.7292 30.2708C16.7292 31.2792 15.9042 32.1042 14.8958 32.1042ZM14.8958 29.8125C14.6392 29.8125 14.4375 30.0142 14.4375 30.2708C14.4375 30.5275 14.6392 30.7292 14.8958 30.7292C15.1525 30.7292 15.3542 30.5275 15.3542 30.2708C15.3542 30.0142 15.1525 29.8125 14.8958 29.8125Z" fill="currentColor"/>
<path d="M7.56283 32.1042C6.55449 32.1042 5.72949 31.2792 5.72949 30.2708C5.72949 29.2625 6.55449 28.4375 7.56283 28.4375C8.57116 28.4375 9.39616 29.2625 9.39616 30.2708C9.39616 31.2792 8.57116 32.1042 7.56283 32.1042ZM7.56283 29.8125C7.30616 29.8125 7.10449 30.0142 7.10449 30.2708C7.10449 30.5275 7.30616 30.7292 7.56283 30.7292C7.81949 30.7292 8.02116 30.5275 8.02116 30.2708C8.02116 30.0142 7.81949 29.8125 7.56283 29.8125Z" fill="currentColor"/>
<path d="M19.25 19.2705H8.25C7.87417 19.2705 7.5625 18.9588 7.5625 18.583C7.5625 18.2072 7.87417 17.8955 8.25 17.8955H19.25C19.6258 17.8955 19.9375 18.2072 19.9375 18.583C19.9375 18.9588 19.6258 19.2705 19.25 19.2705Z" fill="currentColor"/>
<path d="M13.6204 13.2967C13.4937 13.2967 13.3671 13.2501 13.2671 13.1501C13.0737 12.9567 13.0737 12.6367 13.2671 12.4434L16.9604 8.75008L13.2671 5.05674C13.0737 4.86341 13.0737 4.54341 13.2671 4.35008C13.4604 4.15674 13.7804 4.15674 13.9737 4.35008L18.0204 8.39674C18.2137 8.59008 18.2137 8.91008 18.0204 9.10341L13.9737 13.1501C13.8737 13.2501 13.7471 13.2967 13.6204 13.2967Z" fill="currentColor"/>
<path d="M17.553 9.25H6.33301C6.05967 9.25 5.83301 9.02333 5.83301 8.75C5.83301 8.47667 6.05967 8.25 6.33301 8.25H17.553C17.8263 8.25 18.053 8.47667 18.053 8.75C18.053 9.02333 17.8263 9.25 17.553 9.25Z" fill="currentColor"/>
</svg>
