<svg xmlns="http://www.w3.org/2000/svg" viewBox="0 0 25 31.25" x="0px" y="0px"><g data-name="Order History"><path d="M18,13.051V5.5A2.5,2.5,0,0,0,15.5,3H5.5A2.5,2.5,0,0,0,3,5.5v11A2.5,2.5,0,0,0,5.5,19h7.776A4.489,4.489,0,1,0,18,13.051ZM13.051,18H5.5A1.5,1.5,0,0,1,4,16.5V5.5A1.5,1.5,0,0,1,5.5,4h10A1.5,1.5,0,0,1,17,5.5v7.551A4.49,4.49,0,0,0,13,17.5,4.342,4.342,0,0,0,13.051,18ZM17.5,21A3.5,3.5,0,1,1,21,17.5,3.5,3.5,0,0,1,17.5,21Zm.5-5.5v2a.5.5,0,0,1-.5.5H16.051a.5.5,0,1,1,0-1H17V15.5a.5.5,0,0,1,1,0ZM6,6.5A.5.5,0,0,1,6.5,6h8a.5.5,0,0,1,0,1h-8A.5.5,0,0,1,6,6.5Zm0,3A.5.5,0,0,1,6.5,9h8a.5.5,0,0,1,0,1h-8A.5.5,0,0,1,6,9.5ZM14.19,13H6.5a.5.5,0,0,1,0-1h7.69a.5.5,0,0,1,0,1Zm-1.84,2.5a.5.5,0,0,1-.5.5H6.5a.5.5,0,0,1,0-1h5.35A.5.5,0,0,1,12.35,15.5Z"/></g><text x="0" y="40" fill="#000000" font-size="5px" font-weight="bold" font-family="'Helvetica Neue', Helvetica, Arial-Unicode, Arial, Sans-serif">Created by The Icon Z</text><text x="0" y="45" fill="#000000" font-size="5px" font-weight="bold" font-family="'Helvetica Neue', Helvetica, Arial-Unicode, Arial, Sans-serif">from the Noun Project</text></svg>