<svg width="20" height="20" viewBox="0 0 20 20" fill="none" xmlns="http://www.w3.org/2000/svg">
<path d="M14.8253 18.9586H5.17533C2.89199 18.9586 1.04199 17.1003 1.04199 14.817V8.64197C1.04199 7.50864 1.74199 6.08364 2.64199 5.38364L7.13366 1.88364C8.48366 0.833637 10.642 0.783637 12.042 1.76697L17.192 5.3753C18.1837 6.06697 18.9587 7.5503 18.9587 8.75864V14.8253C18.9587 17.1003 17.1087 18.9586 14.8253 18.9586ZM7.90033 2.86697L3.40866 6.36697C2.81699 6.83364 2.29199 7.89197 2.29199 8.64197V14.817C2.29199 16.4086 3.58366 17.7086 5.17533 17.7086H14.8253C16.417 17.7086 17.7087 16.417 17.7087 14.8253V8.75864C17.7087 7.95864 17.1337 6.8503 16.4753 6.4003L11.3253 2.79197C10.3753 2.1253 8.80866 2.15864 7.90033 2.86697Z" fill="currentColor"/>
<path d="M10 15.625C9.65833 15.625 9.375 15.3417 9.375 15V12.5C9.375 12.1583 9.65833 11.875 10 11.875C10.3417 11.875 10.625 12.1583 10.625 12.5V15C10.625 15.3417 10.3417 15.625 10 15.625Z" fill="currentColor"/>
</svg>
